<svg xmlns="http://www.w3.org/2000/svg" viewBox="0 0 709.45 262.68"><defs><style>.cls-1{fill:#000b8c;}.cls-2{fill:#e30613;}.cls-3{fill:#271d62;}</style></defs><title>Recurso 1</title><g id="Capa_2" data-name="Capa 2"><g id="Capa_1-2" data-name="Capa 1"><path class="cls-1" d="M201.51,106.94A30.15,30.15,0,0,0,179,116.2q-9,9.26-9,23,0,12.66,7.71,20.36t20.48,7.71q13.88,0,22.65-9.33t8.78-24.24a25.47,25.47,0,0,0-8-19.11Q213.68,106.93,201.51,106.94Zm12.42,45.79a19.35,19.35,0,0,1-15.17,6.79q-8.56,0-13.79-5.65T179.74,139q0-10.51,6-17.34A19.48,19.48,0,0,1,201,114.82a17.58,17.58,0,0,1,13.61,5.81q5.28,5.82,5.29,14.86Q219.92,145.95,213.93,152.73Z"/><path class="cls-1" d="M269.36,107.06a23.58,23.58,0,0,0-11.22,2.66,26.55,26.55,0,0,0-9,8l6.42-47.58h-9.78L233.28,164.9h9.91L244.6,154a21.47,21.47,0,0,0,7.91,9.93A22.25,22.25,0,0,0,265,167.29a27.08,27.08,0,0,0,12-2.75,26.07,26.07,0,0,0,9.42-7.77,36.38,36.38,0,0,0,5.35-10.09,33.69,33.69,0,0,0,1.87-11q0-13-6.67-20.85T269.36,107.06Zm8.5,45.12a19.59,19.59,0,0,1-15.29,6.61A14.42,14.42,0,0,1,251,153.53q-4.47-5.26-4.47-13.82,0-10,5.69-16.79t13.88-6.75a16.58,16.58,0,0,1,12.78,5.29q4.89,5.28,4.89,13.91Q283.79,145.59,277.86,152.18Z"/><path class="cls-1" d="M327.35,107.05a28.14,28.14,0,0,0-21.49,9.21q-8.57,9.21-8.57,23.23,0,12.85,7.38,20.42a24,24,0,0,0,10.13,6.14L347.19,156c.32-.4.66-.75,1-1.16l-6.74-5.51a28.59,28.59,0,0,1-8.08,7.4,17.9,17.9,0,0,1-9.12,2.39q-8,0-12.55-5.17t-4.59-14.17v-1l44.87-.07q.06-.74.09-1.65c0-.61,0-1.51,0-2.69q0-13-6.48-20.14T327.35,107.05ZM308,130.74a19.85,19.85,0,0,1,6.82-11.51,19,19,0,0,1,12.46-4.29q7.29,0,11.29,4.1c2.68,2.74,4.05,6.64,4.14,11.7Z"/><path class="cls-1" d="M391,107.35a13.5,13.5,0,0,0-2.78-.3,15.37,15.37,0,0,0-8.66,2.6,29.55,29.55,0,0,0-7.81,8.29l1.53-8.87h-9.67l-5.72,43.57,9.58-3,.37-.1,1.46-10.92q1.53-11.32,5.3-16.71a11.82,11.82,0,0,1,10.19-5.39,13.49,13.49,0,0,1,3.31.43,16.82,16.82,0,0,1,3.24,1.23l2.51-9.92A15.25,15.25,0,0,0,391,107.35Z"/><path class="cls-2" d="M419.63,130.21a24.1,24.1,0,0,0-9.89,2,27.34,27.34,0,0,0-8.54,6.12l.61-6.12H389.26l-2.18,16.54c14.57-6.4,26.21-6.93,28.38-6.93q6.85,0,10.59,4.59t3.74,13q0,10.35-4.38,16.28a14.07,14.07,0,0,1-12,5.94q-7,0-11.11-4.47l-.1-.12-19.44,4.34L378,217.75h13.16l4.65-35.63a29.69,29.69,0,0,0,9.37,7.47,24.54,24.54,0,0,0,10.9,2.45,24.06,24.06,0,0,0,19.77-9.55q7.59-9.56,7.59-25,0-13.09-6.18-20.2T419.63,130.21Z"/><path class="cls-2" d="M501.23,140a28.57,28.57,0,0,0-9.21-7.37,25.45,25.45,0,0,0-30.7,7.13q-7.59,9.56-7.59,25.16,0,13.22,6.21,20.42t17.6,7.19a23.47,23.47,0,0,0,10.28-2.14,22.33,22.33,0,0,0,7.9-6.49l-1,6.36H507.9l7.66-58H502.39Zm-6.79,34.41a14.66,14.66,0,0,1-12.49,6.3q-6.85,0-10.72-4.65t-3.85-13q0-10.34,4.47-16.4a14.14,14.14,0,0,1,12-6.06q7,0,11.09,4.43t4.1,12Q499,168.11,494.44,174.41Z"/><path class="cls-2" d="M558.84,130.21q-14.94,0-24.4,9.52T525,164.31q0,12.85,7.87,20.6t21,7.74a36.52,36.52,0,0,0,8.45-1,32.6,32.6,0,0,0,7.59-2.84l2.75-14a40.45,40.45,0,0,1-9.36,4.59,29,29,0,0,1-9.06,1.53q-7.23,0-11.39-4.47t-4.16-12.31q0-10,5.6-16.22a18.55,18.55,0,0,1,14.48-6.24,22.65,22.65,0,0,1,8.78,1.8,30.22,30.22,0,0,1,8.23,5.24l2.76-12.55a34,34,0,0,0-9.27-4.53A35.38,35.38,0,0,0,558.84,130.21Z"/><polygon class="cls-2" points="596.69 95.34 584.14 190.23 597.31 190.23 609.86 95.34 596.69 95.34"/><path class="cls-2" d="M652.64,132.2H635.56c2.61,1.42-30.72,25.74-30.72,25.74a.62.62,0,0,0,.15.06c9.86,1.88,24.69,32.23,24.69,32.23H645.6l-24.68-31.34S659,132.2,652.64,132.2Z"/><path class="cls-2" d="M680.2,132.2H663.12c2.61,1.42-30.71,25.74-30.71,25.74a.49.49,0,0,0,.14.06c9.86,1.88,24.69,32.23,24.69,32.23h15.92l-24.67-31.34S686.54,132.2,680.2,132.2Z"/><path class="cls-2" d="M707.77,132.2H690.69c2.6,1.42-30.72,25.74-30.72,25.74a.62.62,0,0,0,.15.06c9.86,1.88,24.69,32.23,24.69,32.23h15.92l-24.68-31.34S714.11,132.2,707.77,132.2Z"/><path class="cls-3" d="M417.32,163.44l-19-5.85c-16.75,9.36-34.16,18.23-52,26.51l70.87-15.82A2.5,2.5,0,0,0,417.32,163.44Z"/><path class="cls-1" d="M378,153.23a33.47,33.47,0,0,0-9,1.48L233.52,196.92a37,37,0,0,1-30.14-3.65l-16.76-10.48a22.54,22.54,0,0,0-18-2.62l-40.38,11.21,6.87,2.46C138.73,196.09,148,193,148,193a20.55,20.55,0,0,1,16.11,2.21l29.62,17.89c-15.93,3.27-32,5.92-48.17,7.65a345.33,345.33,0,0,1-53.12,1.86c-4.43-.25-8.86-.48-13.26-1-4.43-.36-8.8-1.09-13.19-1.73a163.16,163.16,0,0,1-25.75-6.49A90.72,90.72,0,0,1,16.81,201.1,52.66,52.66,0,0,1,0,180.81a52.93,52.93,0,0,0,16.48,20.71,91.56,91.56,0,0,0,23.44,12.84,166,166,0,0,0,25.84,7.06c4.4.73,8.8,1.55,13.25,2,4.43.61,8.89.93,13.34,1.27a345.62,345.62,0,0,0,53.55-.81,517.68,517.68,0,0,0,53-7.52l0-.12c44.62-9.13,92.27-24.27,139.75-44.73C352,165.78,365.1,159.64,378,153.23Z"/><path class="cls-2" d="M224.1,229.05v0a613.83,613.83,0,0,1-65.51,15.29,439.6,439.6,0,0,1-67,6.69,439.85,439.85,0,0,0,67.32-4.6,606.88,606.88,0,0,0,60-11.72l-25.62,28,23.27-6.46,71.06-47.7C266.24,216.48,245,223.36,224.1,229.05Z"/><path class="cls-1" d="M564.31,76.74c1.09-.8,2.19-1.58,3.27-2.39l-1.78.92A3.76,3.76,0,0,0,564.31,76.74Z"/><path class="cls-1" d="M575.79,64.24l1.23.64a2.47,2.47,0,0,1,1.17,1.31c.55-.43,1.12-.85,1.66-1.28,1.27-1,2.52-2,3.77-3l-7-.58A1.57,1.57,0,0,0,575.79,64.24Z"/><path class="cls-1" d="M359.85,79.63a5,5,0,0,1,4.29-.77l.85.24a3.08,3.08,0,0,1,2.24,3.26l-.22,2.2a5.37,5.37,0,0,0,3.5,5.57l5.56,2a16.78,16.78,0,0,0,13-.6l1.25-.59a3.67,3.67,0,0,1,3.64.27,5.49,5.49,0,0,0,5,.58L414,86.16a9.52,9.52,0,0,1,3.66-.61l4.9.14a2.38,2.38,0,0,1,2.31,2.58,3.31,3.31,0,0,0,3.24,3.57L436,92a8,8,0,0,1,6.75,3.93l8.11,13.68a5.14,5.14,0,0,0,6.59,2l12.1-5.64a3.87,3.87,0,0,0,2.1-4.57L471,99.14a12.32,12.32,0,0,1,.64-8.35l7-15.37a1.57,1.57,0,0,0-1.78-2.19l-15.16,3.4a3.3,3.3,0,0,1-3.34-1.21L455.64,72a7.14,7.14,0,0,0-8.21-2.31L421,79.78a1.92,1.92,0,0,1-2.34-.84,3.22,3.22,0,0,0-4-1.41L403.39,82a2.28,2.28,0,0,1-3.08-1.83l0-.3a3,3,0,0,1,1-2.65l19.22-16.65a3.07,3.07,0,0,0,.31-4.33,3.85,3.85,0,0,1,1.06-5.89l24.89-13.66a3,3,0,0,0,.59-4.8l-2.25-2.07a14,14,0,0,1-4.32-7.91l-1-5.74a3.5,3.5,0,0,1,.83-2.91,208.39,208.39,0,0,0-63.08,35.54,14.77,14.77,0,0,1-2.89,2.46A165.47,165.47,0,0,0,338.7,94.66c.22-.08.43-.15.66-.25C341.24,93.21,354.73,83.37,359.85,79.63Z"/><path class="cls-1" d="M450,13.63a5.23,5.23,0,0,1,2.07,1.06A10.9,10.9,0,0,0,460.94,17l26-4.59a15.91,15.91,0,0,0,5.48-2.06L504.83,2.9A1.61,1.61,0,0,0,504.5,0q-3.11.21-6.18.51l-5.27.55a237.18,237.18,0,0,0-49.17,11l.26,0Z"/><path class="cls-1" d="M565.8,75.27l1.78-.92q5.37-4,10.61-8.16A2.47,2.47,0,0,0,577,64.88l-1.23-.64a1.57,1.57,0,0,1,.86-3l7,.58A372.12,372.12,0,0,0,622,26.33c.45-.49.89-1,1.33-1.48a3.58,3.58,0,0,0-1.93-1.77l-20.84-8a13.66,13.66,0,0,0-9.41-.14l-1.88.66a13.09,13.09,0,0,1-7.15.44l-16.74-3.7a1.18,1.18,0,0,1-.91-1.29,4,4,0,0,0-3.55-4.47L537.5,4.17a4.78,4.78,0,0,0-4.69,2.47A3.16,3.16,0,0,0,534.25,11l5.36,2.5a1.91,1.91,0,0,1-.75,3.63L510.23,18a3.17,3.17,0,0,0-1.88,5.64l.27.22a2.07,2.07,0,0,1-.88,3.64L505,28a1.2,1.2,0,0,0-.66,2,4.31,4.31,0,0,1-.45,6.15L495.75,43a7.37,7.37,0,0,0-2.55,4.86l-.2,1.88A11.6,11.6,0,0,0,496.22,59l2,2.06a8.48,8.48,0,0,0,6.37,2.57l15.8-.53a6,6,0,0,1,5.52,3.16l2.6,4.83a7.18,7.18,0,0,1,.46,5.79l-.34,1a9.83,9.83,0,0,0,.07,6.66l.61,1.61a13.44,13.44,0,0,0,9.48,8.36q13-8.58,25.53-17.79A3.76,3.76,0,0,1,565.8,75.27Z"/><path class="cls-1" d="M678,59.64l-8.23-7.7q-4.38-3.84-9.05-7.46L636.94,30.32a7.42,7.42,0,0,0-8.48.61l-.23.2c-.19.19-.37.4-.56.59a367.74,367.74,0,0,1-33.58,30.35l.19,0a6.93,6.93,0,0,1,7.14,3.77l1.24,2.46A10.6,10.6,0,0,0,607.31,73l11,5.65a3.6,3.6,0,0,0,2.71.23,4.74,4.74,0,0,1,3.67.33l5.52,2.92a2,2,0,0,1,.95,2.41,5,5,0,0,0,1.91,5.78l12,8.12a1.17,1.17,0,0,0,1.82-1,2.68,2.68,0,0,1,3-2.7l10.54,1.13a4.86,4.86,0,0,0,5.37-4.57l0-.38a3.29,3.29,0,0,1,4-3l15.42,3.62a1.85,1.85,0,0,0,2.23-2.21l-.16-.73a1.6,1.6,0,0,1,2.49-1.65L707.5,99.62A159.89,159.89,0,0,0,678,59.64Z"/><path class="cls-1" d="M403.28,213.53h5.07l-.57,3.65h-9.44l2.58-16.38h9.44l-.59,3.78H404.7l-.41,2.68H409l-.55,3.55h-4.72Z"/><path class="cls-1" d="M410.82,217.18l2.59-16.38h5l3.46,8.09.15.35a13.86,13.86,0,0,1,.79,2.32v-.41c0-.3,0-.63.05-1s.09-.8.15-1.31l1.27-8h4.37l-2.58,16.38h-4.81l-3.67-8.33c-.27-.61-.47-1.11-.61-1.5a10.7,10.7,0,0,1-.35-1.19v.46c0,.3,0,.61,0,.94s-.08.78-.14,1.33l-1.24,8.29Z"/><path class="cls-1" d="M433.67,217.18,429.3,200.8H434l2,9.37a7.65,7.65,0,0,1,.13.81c0,.3.07.65.1,1,.15-.41.28-.78.41-1.11l.32-.79,4.34-9.32h4.88l-8.68,16.38Z"/><path class="cls-1" d="M445.14,217.18l2.6-16.38h4.46l-2.59,16.38Z"/><path class="cls-1" d="M462,217.62a10.09,10.09,0,0,1-3.2-.48,7.65,7.65,0,0,1-2.55-1.45,7,7,0,0,1-1.84-2.54,7.92,7.92,0,0,1-.66-3.21,10.16,10.16,0,0,1,.57-3.43,8.86,8.86,0,0,1,1.68-2.89,8.67,8.67,0,0,1,3.2-2.37,10.18,10.18,0,0,1,4.08-.81,8.39,8.39,0,0,1,6,2.12,7.21,7.21,0,0,1,2.28,5.52,9.92,9.92,0,0,1-.58,3.43A9.15,9.15,0,0,1,466,216.8,10,10,0,0,1,462,217.62Zm1-13.18a4.41,4.41,0,0,0-3.35,1.44,5.05,5.05,0,0,0-1.36,3.58,4.18,4.18,0,0,0,1.08,3,3.81,3.81,0,0,0,2.88,1.13,4.36,4.36,0,0,0,3.35-1.49,5.17,5.17,0,0,0,1.37-3.64,4,4,0,0,0-1.11-2.9A3.84,3.84,0,0,0,463,204.44Z"/><path class="cls-1" d="M474.37,211.54a7.71,7.71,0,0,0,2,1.61,4,4,0,0,0,1.93.51,2,2,0,0,0,1.32-.41,1.3,1.3,0,0,0,.49-1.06c0-.59-.66-1.24-2-1.93l-.3-.16a8.16,8.16,0,0,1-2.66-1.94,3.62,3.62,0,0,1-.71-2.25,5.22,5.22,0,0,1,1.64-4,5.9,5.9,0,0,1,4.22-1.54,7.29,7.29,0,0,1,2.62.48,8.34,8.34,0,0,1,2.38,1.42l-1.88,3.23a8.73,8.73,0,0,0-1.61-1.13,3.05,3.05,0,0,0-1.34-.37,1.64,1.64,0,0,0-1.12.39,1.2,1.2,0,0,0-.45,1c0,.46.56,1,1.68,1.55.39.2.7.36.92.49a6.79,6.79,0,0,1,2.39,1.94,4.31,4.31,0,0,1,.67,2.48,5.26,5.26,0,0,1-1.82,4.2,7.34,7.34,0,0,1-5,1.58,7,7,0,0,1-3.07-.7,7.91,7.91,0,0,1-2.59-2.08Z"/><path class="cls-1" d="M493.14,217.18l2.6-16.38h4.46l-2.59,16.38Z"/><path class="cls-1" d="M501.19,217.18l2.58-16.38h5l3.46,8.09.15.35a13.86,13.86,0,0,1,.79,2.32v-.41c0-.3,0-.63.05-1s.08-.8.15-1.31l1.27-8H519l-2.58,16.38h-4.81L508,208.85c-.27-.61-.48-1.11-.61-1.5s-.26-.79-.36-1.19v.46c0,.3,0,.61,0,.94s-.07.78-.13,1.33l-1.25,8.29Z"/><path class="cls-1" d="M522.17,217.18l2-12.57H520.5l.62-3.81h11.57l-.63,3.81h-3.5l-2,12.57Z"/><path class="cls-1" d="M537.35,213.53h5.07l-.57,3.65h-9.44L535,200.8h9.45l-.6,3.78h-5.06l-.42,2.68h4.7l-.55,3.55h-4.72Z"/><path class="cls-1" d="M549.25,217.18H544.9l2.58-16.38h4.36a22.77,22.77,0,0,1,2.93.14,5.56,5.56,0,0,1,1.67.48,4.1,4.1,0,0,1,1.88,1.64,4.85,4.85,0,0,1,.64,2.53,5,5,0,0,1-1.22,3.41,5.53,5.53,0,0,1-3.34,1.72l4,6.46h-5l-3.17-6.25Zm1.4-8.89H552a2.94,2.94,0,0,0,2-.6,2.09,2.09,0,0,0,.7-1.71,1.75,1.75,0,0,0-.65-1.52A3.57,3.57,0,0,0,552,204h-.65Z"/><path class="cls-1" d="M560.06,217.18l2.59-16.38h5l3.46,8.09.14.35a14,14,0,0,1,.8,2.32v-.41a8.86,8.86,0,0,1,.05-1c0-.36.08-.8.15-1.31l1.26-8h4.37l-2.58,16.38h-4.81l-3.67-8.33c-.27-.61-.47-1.11-.61-1.5s-.25-.79-.35-1.19v.46c0,.3,0,.61,0,.94s-.07.78-.14,1.33l-1.24,8.29Z"/><path class="cls-1" d="M577,217.18l8.2-16.38h5.48l3.48,16.38h-4.44l-.66-3.09h-5.73l-1.56,3.09Zm8-6.73h3.46l-.75-3.83c-.08-.38-.13-.72-.17-1s-.06-.57-.07-.84c-.15.45-.3.84-.43,1.18s-.23.59-.31.76Z"/><path class="cls-1" d="M609.82,201.58l-.73,4.51a6.87,6.87,0,0,0-2.05-1.23,6.47,6.47,0,0,0-2.31-.42,4.37,4.37,0,0,0-3.35,1.42,5.12,5.12,0,0,0-1.32,3.62,4.18,4.18,0,0,0,1.1,3.09,4.33,4.33,0,0,0,3.14,1.09,8.64,8.64,0,0,0,1.79-.21,13.29,13.29,0,0,0,1.94-.64l-.68,4.24a10.75,10.75,0,0,1-1.85.4,15,15,0,0,1-2.19.15,7.47,7.47,0,0,1-5.61-2.18,7.92,7.92,0,0,1-2.11-5.76,9.81,9.81,0,0,1,.55-3.3,9.24,9.24,0,0,1,1.59-2.86,7.88,7.88,0,0,1,3.07-2.29,10.3,10.3,0,0,1,4.12-.8,11,11,0,0,1,2.52.29A11.21,11.21,0,0,1,609.82,201.58Z"/><path class="cls-1" d="M610.09,217.18l2.6-16.38h4.46l-2.59,16.38Z"/><path class="cls-1" d="M626.91,217.62a10.09,10.09,0,0,1-3.2-.48,7.65,7.65,0,0,1-2.55-1.45,7,7,0,0,1-1.84-2.54,7.92,7.92,0,0,1-.66-3.21,10.16,10.16,0,0,1,.57-3.43,8.86,8.86,0,0,1,1.68-2.89,8.67,8.67,0,0,1,3.2-2.37,10.18,10.18,0,0,1,4.08-.81,8.39,8.39,0,0,1,6,2.12,7.21,7.21,0,0,1,2.28,5.52,9.92,9.92,0,0,1-.58,3.43A9.15,9.15,0,0,1,631,216.8,10,10,0,0,1,626.91,217.62Zm1-13.18a4.41,4.41,0,0,0-3.35,1.44,5,5,0,0,0-1.36,3.58,4.18,4.18,0,0,0,1.08,3,3.81,3.81,0,0,0,2.88,1.13,4.36,4.36,0,0,0,3.35-1.49,5.17,5.17,0,0,0,1.37-3.64,4,4,0,0,0-1.11-2.9A3.84,3.84,0,0,0,627.91,204.44Z"/><path class="cls-1" d="M637.86,217.18l2.58-16.38h5l3.46,8.09.15.35a13.86,13.86,0,0,1,.79,2.32v-.41c0-.3,0-.63,0-1s.08-.8.15-1.31l1.27-8h4.37l-2.58,16.38h-4.81l-3.67-8.33c-.27-.61-.48-1.11-.61-1.5s-.26-.79-.36-1.19v.46c0,.3,0,.61,0,.94s-.07.78-.13,1.33l-1.25,8.29Z"/><path class="cls-1" d="M654.8,217.18,663,200.8h5.48L672,217.18h-4.44l-.66-3.09h-5.73l-1.57,3.09Zm8-6.73h3.46l-.75-3.83c-.08-.38-.13-.72-.17-1s-.06-.57-.07-.84c-.15.45-.3.84-.43,1.18s-.23.59-.3.76Z"/><path class="cls-1" d="M672.86,217.18l2.59-16.38h4.4l-2,12.47h5.42l-.62,3.91Z"/><path class="cls-1" d="M689.54,213.53h5.07l-.57,3.65H684.6l2.58-16.38h9.44l-.59,3.78H691l-.41,2.68h4.7l-.55,3.55H690Z"/><path class="cls-1" d="M698.55,211.54a7.68,7.68,0,0,0,2,1.61,4,4,0,0,0,1.93.51,2,2,0,0,0,1.32-.41,1.3,1.3,0,0,0,.49-1.06c0-.59-.66-1.24-2-1.93l-.3-.16a8,8,0,0,1-2.65-1.94,3.57,3.57,0,0,1-.72-2.25,5.22,5.22,0,0,1,1.64-4,5.9,5.9,0,0,1,4.22-1.54,7.34,7.34,0,0,1,2.63.48,8.3,8.3,0,0,1,2.37,1.42l-1.88,3.23a8.73,8.73,0,0,0-1.61-1.13,3.05,3.05,0,0,0-1.34-.37,1.64,1.64,0,0,0-1.12.39,1.2,1.2,0,0,0-.45,1c0,.46.56,1,1.68,1.55.4.2.7.36.92.49a6.79,6.79,0,0,1,2.39,1.94,4.31,4.31,0,0,1,.68,2.48,5.24,5.24,0,0,1-1.83,4.2,7.32,7.32,0,0,1-4.95,1.58,7,7,0,0,1-3.08-.7,7.88,7.88,0,0,1-2.58-2.08Z"/><path class="cls-1" d="M169.81,94.13a46.65,46.65,0,0,0-12.54-8.37,32.62,32.62,0,0,0-13-2.71,35.74,35.74,0,0,0-13.81,2.68,32.19,32.19,0,0,0-11.26,7.79,40.31,40.31,0,0,0-8.44,13.33,43.76,43.76,0,0,0-2.89,15.83q0,16,8.83,25.32t24,9.32a36.14,36.14,0,0,0,11.78-2A55.87,55.87,0,0,0,164.94,149l-2.37,12.48a49,49,0,0,1-11.23,4.2,53.25,53.25,0,0,1-12.33,1.4q-18.81,0-30.56-12.15T96.7,123.41a53.54,53.54,0,0,1,3.81-20.18,49,49,0,0,1,10.92-16.58,43.57,43.57,0,0,1,14.74-9.74,49.89,49.89,0,0,1,33.26-1,43,43,0,0,1,13.24,7.46Z"/></g></g></svg>